<svg width="20" height="20" viewBox="0 0 20 20" fill="none" xmlns="http://www.w3.org/2000/svg">
<path fill-rule="evenodd" clip-rule="evenodd" d="M10 0.25C10.1989 0.25 10.3897 0.329018 10.5303 0.46967C10.671 0.610322 10.75 0.801088 10.75 1V12.69L13.97 9.47C14.0387 9.39631 14.1215 9.33721 14.2135 9.29622C14.3055 9.25523 14.4048 9.23318 14.5055 9.23141C14.6062 9.22963 14.7062 9.24816 14.7996 9.28588C14.893 9.3236 14.9778 9.37974 15.049 9.45096C15.1203 9.52218 15.1764 9.60701 15.2141 9.7004C15.2518 9.79379 15.2704 9.89382 15.2686 9.99452C15.2668 10.0952 15.2448 10.1945 15.2038 10.2865C15.1628 10.3785 15.1037 10.4613 15.03 10.53L10.53 15.03C10.3894 15.1705 10.1988 15.2493 10 15.2493C9.80125 15.2493 9.61063 15.1705 9.47 15.03L4.97 10.53C4.89631 10.4613 4.83721 10.3785 4.79622 10.2865C4.75523 10.1945 4.73319 10.0952 4.73141 9.99452C4.72963 9.89382 4.74816 9.79379 4.78588 9.7004C4.8236 9.60701 4.87974 9.52218 4.95096 9.45096C5.02218 9.37974 5.10701 9.3236 5.2004 9.28588C5.29379 9.24816 5.39382 9.22963 5.49452 9.23141C5.59523 9.23318 5.69454 9.25523 5.78654 9.29622C5.87854 9.33721 5.96134 9.39631 6.03 9.47L9.25 12.69V1C9.25 0.801088 9.32902 0.610322 9.46967 0.46967C9.61032 0.329018 9.80109 0.25 10 0.25ZM1 13.75C1.19891 13.75 1.38968 13.829 1.53033 13.9697C1.67098 14.1103 1.75 14.3011 1.75 14.5V16.75C1.75 17.1478 1.90804 17.5294 2.18934 17.8107C2.47064 18.092 2.85218 18.25 3.25 18.25H16.75C17.1478 18.25 17.5294 18.092 17.8107 17.8107C18.092 17.5294 18.25 17.1478 18.25 16.75V14.5C18.25 14.3011 18.329 14.1103 18.4697 13.9697C18.6103 13.829 18.8011 13.75 19 13.75C19.1989 13.75 19.3897 13.829 19.5303 13.9697C19.671 14.1103 19.75 14.3011 19.75 14.5V16.75C19.75 17.5456 19.4339 18.3087 18.8713 18.8713C18.3087 19.4339 17.5456 19.75 16.75 19.75H3.25C2.45435 19.75 1.69129 19.4339 1.12868 18.8713C0.566071 18.3087 0.25 17.5456 0.25 16.75V14.5C0.25 14.3011 0.329018 14.1103 0.46967 13.9697C0.610322 13.829 0.801088 13.75 1 13.75Z" fill="#808080"/>
</svg>
