<svg width="50" height="47" viewBox="0 0 50 47" fill="none" xmlns="http://www.w3.org/2000/svg">
<circle cx="35" cy="32" r="15" fill="#079211"/>
<g clip-path="url(#clip0_1_185)">
<path d="M25.3172 0.0772923C24.2215 -0.238528 23.0807 0.399558 22.7649 1.49526L14.5149 30.3703C14.199 31.466 14.8371 32.6068 15.9328 32.9226C17.0285 33.2384 18.1693 32.6003 18.4852 31.5046L26.7352 2.62964C27.051 1.53393 26.4129 0.393113 25.3172 0.0772923ZM30.5121 7.81811C29.7065 8.62378 29.7065 9.93218 30.5121 10.7378L36.2678 16.4999L30.5057 22.2621C29.7 23.0677 29.7 24.3761 30.5057 25.1818C31.3113 25.9874 32.6197 25.9874 33.4254 25.1818L40.6441 17.963C41.4498 17.1574 41.4498 15.849 40.6441 15.0433L33.4254 7.82456C32.6197 7.01889 31.3113 7.01889 30.5057 7.82456L30.5121 7.81811ZM10.7443 7.81811C9.93868 7.01245 8.63028 7.01245 7.82462 7.81811L0.605866 15.0369C-0.199799 15.8425 -0.199799 17.1509 0.605866 17.9566L7.82462 25.1753C8.63028 25.981 9.93868 25.981 10.7443 25.1753C11.55 24.3697 11.55 23.0613 10.7443 22.2556L4.98223 16.4999L10.7443 10.7378C11.55 9.93218 11.55 8.62378 10.7443 7.81811Z" fill="white"/>
</g>
<defs>
<clipPath id="clip0_1_185">
<rect width="41.25" height="33" fill="white"/>
</clipPath>
</defs>
</svg>
